# xmcd CD database file
#
# Track frame offsets:
#	150
#	13402
#	23885
#	34107
#	48665
#	60757
#	74000
#	85277
#	96427
#	112747
#	126282
#	138637
#	149032
#	160480
#
# Disc length: 2280 seconds
#
# Revision: 0
# Processed by: cddbd v1.5.1PL0 Copyright (c) Steve Scherf et al.
# Submitted via: CDex 1.51
#
DISCID=d108e60e
DTITLE=Frank Ifield - Funny How Time Slips Away
DYEAR=1981
DGENRE=Country
TTITLE0=Riders In The Sky
TTITLE1=San Antonio Rose
TTITLE2=Anytime
TTITLE3=Take Good Care Of Her
TTITLE4=Cold Cold Heart
TTITLE5=Lonesome Whistle
TTITLE6=Funny How Time Slips Away
TTITLE7=Please
TTITLE8=Tumbling Tumbleweeds
TTITLE9=Hawaiian Wedding Song
TTITLE10=A Fool Such As I
TTITLE11=One A Jolly Swagman
TTITLE12=Botany Bay
TTITLE13=Waltzing Matilda
EXTD=YEAR: 1981
EXTT0=
EXTT1=
EXTT2=
EXTT3=
EXTT4=
EXTT5=
EXTT6=
EXTT7=
EXTT8=
EXTT9=
EXTT10=
EXTT11=
EXTT12=
EXTT13=
PLAYORDER=
